<svg xmlns="http://www.w3.org/2000/svg" fill="none" height="32" width="249" xmlns:v="https://vecta.io/nano"><path d="M6.5.5H36v31H6.5A5.5 5.5 0 0 1 1 26V6A5.5 5.5 0 0 1 6.5.5z" fill="#2f363d"/><path d="M18.5 8.5c-4.236 0-7.667 3.431-7.667 7.667 0 3.392 2.195 6.258 5.242 7.274.383.067.527-.163.527-.364l-.01-1.428c-1.926.355-2.425-.47-2.578-.901-.086-.22-.46-.901-.786-1.083-.268-.144-.652-.498-.01-.508.604-.01 1.035.556 1.179.786.69 1.16 1.792.834 2.233.633.067-.498.268-.834.489-1.025-1.706-.192-3.488-.853-3.488-3.785 0-.834.297-1.524.786-2.061-.077-.192-.345-.977.077-2.032 0 0 .642-.201 2.108.786.613-.172 1.265-.259 1.917-.259s1.303.086 1.917.259c1.466-.997 2.108-.786 2.108-.786.422 1.054.153 1.84.077 2.032.489.537.786 1.217.786 2.061 0 2.942-1.792 3.594-3.498 3.785.278.24.517.7.517 1.418l-.009 2.108c0 .201.144.441.527.364a7.68 7.68 0 0 0 5.223-7.274c0-4.236-3.431-7.667-7.667-7.667z" fill="#fff" fill-rule="evenodd"/><path d="M6.5.5H36v31H6.5A5.5 5.5 0 0 1 1 26V6A5.5 5.5 0 0 1 6.5.5z" stroke="#444d56"/><path d="M36 .5h206.5A5.5 5.5 0 0 1 248 6v20a5.5 5.5 0 0 1-5.5 5.5H36z" fill="#24292e"/><path d="M52.969 10.89c-2.864 0-4.669 1.989-4.669 5.175 0 3.179 1.777 5.182 4.669 5.182 2.878 0 4.662-2.003 4.662-5.182 0-3.186-1.791-5.175-4.662-5.175zm0 1.524c1.75 0 2.864 1.415 2.864 3.65 0 2.222-1.107 3.657-2.864 3.657-1.777 0-2.864-1.436-2.864-3.657 0-2.235 1.114-3.65 2.864-3.65zm10.432.991c-1.025 0-1.894.513-2.324 1.36h-.116v-1.237h-1.634v9.953h1.695v-3.616h.116c.383.793 1.21 1.258 2.283 1.258 1.887 0 3.062-1.483 3.062-3.855 0-2.393-1.189-3.862-3.083-3.862zm-.533 6.309c-1.155 0-1.873-.936-1.88-2.447.007-1.511.731-2.447 1.887-2.447 1.162 0 1.866.916 1.866 2.447s-.697 2.447-1.873 2.447zm10.042-.759c-.246.561-.827.875-1.668.875-1.114 0-1.832-.793-1.873-2.058v-.089h5.223v-.54c0-2.345-1.278-3.76-3.411-3.76-2.167 0-3.514 1.511-3.514 3.91 0 2.393 1.326 3.855 3.527 3.855 1.764 0 3.015-.848 3.322-2.194zm-1.736-4.252c1.019 0 1.689.718 1.723 1.852h-3.52c.075-1.121.786-1.852 1.798-1.852zM76.144 21h1.695v-4.354c0-1.121.636-1.825 1.647-1.825 1.032 0 1.511.581 1.511 1.743V21h1.695v-4.833c0-1.777-.909-2.782-2.577-2.782-1.114 0-1.866.506-2.222 1.34h-.116v-1.196h-1.634zm12.852-8.723a1.01 1.01 0 0 0 1.019-1.005c0-.554-.458-1.005-1.019-1.005-.554 0-1.012.451-1.012 1.005 0 .56.458 1.005 1.012 1.005zM88.155 21h1.689v-7.472h-1.689zm3.644 0h1.695v-4.354c0-1.121.636-1.825 1.647-1.825 1.032 0 1.511.581 1.511 1.743V21h1.695v-4.833c0-1.777-.909-2.782-2.577-2.782-1.114 0-1.866.506-2.222 1.34h-.116v-1.196h-1.634zm20.7-3.937v-1.23h-4.095v1.347h2.373l-.007.205c-.028 1.395-1.053 2.331-2.557 2.331-1.757 0-2.857-1.395-2.857-3.664 0-2.235 1.08-3.63 2.802-3.63 1.265 0 2.147.629 2.502 1.771h1.757c-.314-2.01-1.982-3.302-4.259-3.302-2.809 0-4.607 2.017-4.607 5.175 0 3.192 1.777 5.182 4.635 5.182 2.632 0 4.313-1.634 4.313-4.184zm2.585-4.785a1.01 1.01 0 0 0 1.018-1.005c0-.554-.458-1.005-1.018-1.005-.554 0-1.012.451-1.012 1.005 0 .56.458 1.005 1.012 1.005zM114.243 21h1.688v-7.472h-1.688zm4.184-9.304v1.88h-1.183v1.319h1.183v4.122c0 1.442.683 2.017 2.399 2.017.328 0 .643-.027.889-.075V19.66l-.574.034c-.711 0-1.026-.335-1.026-1.08v-3.719h1.6v-1.319h-1.6v-1.88zM131.757 21v-9.864H130v4.102h-4.798v-4.102h-1.764V21h1.764v-4.279H130V21zm8.621-7.472h-1.696v4.355c0 1.128-.601 1.811-1.702 1.811-1.011 0-1.483-.561-1.483-1.723v-4.443h-1.695v4.854c0 1.75.957 2.769 2.59 2.769 1.142 0 1.873-.485 2.236-1.34h.116V21h1.634zm6.084 7.595c1.887 0 3.069-1.483 3.069-3.855 0-2.386-1.175-3.862-3.069-3.862-1.025 0-1.887.499-2.276 1.313h-.116v-4.081h-1.696V21h1.634v-1.183h.116c.424.82 1.292 1.306 2.338 1.306zm-.533-6.303c1.155 0 1.859.923 1.859 2.447s-.697 2.447-1.859 2.447-1.887-.936-1.887-2.447.732-2.447 1.887-2.447zm13.03 6.426c2.276 0 3.944-1.347 4.177-3.343h-1.737c-.239 1.107-1.189 1.811-2.44 1.811-1.682 0-2.728-1.401-2.728-3.65 0-2.242 1.046-3.644 2.721-3.644 1.244 0 2.194.773 2.441 1.962h1.736c-.205-2.044-1.935-3.493-4.177-3.493-2.796 0-4.525 1.976-4.525 5.182 0 3.192 1.736 5.175 4.532 5.175zm9.037-.096c2.236 0 3.596-1.463 3.596-3.89 0-2.413-1.367-3.876-3.596-3.876-2.221 0-3.595 1.47-3.595 3.876 0 2.427 1.353 3.89 3.595 3.89zm0-1.388c-1.182 0-1.859-.916-1.859-2.495s.677-2.495 1.859-2.495c1.176 0 1.853.916 1.853 2.495s-.67 2.495-1.853 2.495zm7.862 1.36c1.039 0 1.901-.485 2.324-1.306h.117V21h1.64V10.637h-1.695v4.081h-.116c-.397-.82-1.244-1.312-2.27-1.312-1.887 0-3.076 1.49-3.076 3.855 0 2.372 1.183 3.862 3.076 3.862zm.527-6.303c1.162 0 1.879.937 1.879 2.447 0 1.518-.71 2.447-1.879 2.447-1.163 0-1.867-.916-1.867-2.447 0-1.524.711-2.447 1.867-2.447zm10.418 4.136c-.246.561-.827.875-1.668.875-1.114 0-1.832-.793-1.873-2.058v-.089h5.223v-.54c0-2.345-1.279-3.76-3.412-3.76-2.167 0-3.513 1.511-3.513 3.91 0 2.393 1.326 3.855 3.527 3.855 1.764 0 3.015-.848 3.322-2.194zm-1.736-4.252c1.018 0 1.688.718 1.722 1.852h-3.52c.075-1.121.786-1.852 1.798-1.852zm4.799.957c0 1.121.677 1.777 2.112 2.105l1.326.308c.711.164 1.033.438 1.033.861 0 .567-.595.957-1.45.957-.847 0-1.374-.342-1.538-.895h-1.675c.13 1.347 1.306 2.153 3.172 2.153s3.186-.95 3.186-2.379c0-1.101-.663-1.709-2.092-2.037l-1.319-.294c-.752-.178-1.108-.444-1.108-.868 0-.554.581-.93 1.354-.93.793 0 1.292.342 1.415.868h1.593c-.123-1.347-1.238-2.126-3.015-2.126-1.764 0-2.994.937-2.994 2.276zm11.806-2.256c-1.026 0-1.894.513-2.324 1.36h-.117v-1.237h-1.633v9.953h1.695v-3.616h.116c.383.793 1.21 1.258 2.283 1.258 1.887 0 3.063-1.483 3.063-3.855 0-2.393-1.19-3.862-3.083-3.862zm-.533 6.31c-1.156 0-1.873-.936-1.88-2.447.007-1.511.731-2.447 1.887-2.447 1.162 0 1.866.916 1.866 2.447s-.698 2.447-1.873 2.447zm7.226 1.408c.977 0 1.798-.424 2.214-1.148h.117V21h1.633v-5.106c0-1.579-1.08-2.509-3-2.509-1.778 0-3.015.834-3.152 2.14h1.6c.157-.513.69-.793 1.469-.793.917 0 1.409.417 1.409 1.162v.642l-1.928.116c-1.818.103-2.837.889-2.837 2.229 0 1.367 1.032 2.242 2.475 2.242zm.499-1.306c-.752 0-1.292-.376-1.292-1.019 0-.622.444-.971 1.394-1.032l1.689-.116v.608c0 .889-.766 1.559-1.791 1.559zm11.819-3.794c-.177-1.545-1.339-2.639-3.26-2.639-2.249 0-3.569 1.442-3.569 3.862 0 2.447 1.326 3.903 3.575 3.903 1.894 0 3.07-1.053 3.254-2.598h-1.613c-.178.786-.766 1.203-1.647 1.203-1.156 0-1.853-.923-1.853-2.509 0-1.559.691-2.475 1.853-2.475.929 0 1.49.526 1.647 1.251zm6.345 2.933c-.247.561-.828.875-1.668.875-1.115 0-1.832-.793-1.873-2.058v-.089h5.222v-.54c0-2.345-1.278-3.76-3.411-3.76-2.167 0-3.514 1.511-3.514 3.91 0 2.393 1.327 3.855 3.528 3.855 1.763 0 3.014-.848 3.322-2.194zm-1.737-4.252c1.019 0 1.689.718 1.723 1.852h-3.521c.076-1.121.786-1.852 1.798-1.852zm4.799.957c0 1.121.677 1.777 2.113 2.105l1.326.308c.711.164 1.032.438 1.032.861 0 .567-.595.957-1.449.957-.848 0-1.374-.342-1.538-.895h-1.675c.13 1.347 1.306 2.153 3.172 2.153s3.185-.95 3.185-2.379c0-1.101-.663-1.709-2.091-2.037l-1.32-.294c-.752-.178-1.107-.444-1.107-.868 0-.554.581-.93 1.353-.93.793 0 1.292.342 1.415.868h1.593c-.123-1.347-1.237-2.126-3.014-2.126-1.764 0-2.995.937-2.995 2.276z" fill="#fff"/><path d="M36 .5h206.5A5.5 5.5 0 0 1 248 6v20a5.5 5.5 0 0 1-5.5 5.5H36z" stroke="#444d56"/></svg>