<svg width="900" height="516" viewBox="0 0 900 516" fill="none" xmlns="http://www.w3.org/2000/svg">
<rect width="900" height="516" fill="white"/>
<rect x="41" y="313.015" width="817.207" height="152.985" rx="14" stroke="#797979" stroke-width="2"/>
<path d="M382.984 410.46C380.837 410.46 378.951 410.061 377.326 409.264C375.731 408.436 374.489 407.286 373.6 405.814C372.741 404.311 372.312 402.548 372.312 400.524V385.896C372.312 383.841 372.741 382.078 373.6 380.606C374.489 379.134 375.731 377.999 377.326 377.202C378.951 376.374 380.837 375.96 382.984 375.96C385.161 375.96 387.032 376.374 388.596 377.202C390.191 377.999 391.433 379.134 392.322 380.606C393.211 382.078 393.656 383.841 393.656 385.896H387.86C387.86 384.301 387.431 383.09 386.572 382.262C385.744 381.434 384.548 381.02 382.984 381.02C381.42 381.02 380.209 381.434 379.35 382.262C378.491 383.09 378.062 384.286 378.062 385.85V400.524C378.062 402.088 378.491 403.299 379.35 404.158C380.209 404.986 381.42 405.4 382.984 405.4C384.548 405.4 385.744 404.986 386.572 404.158C387.431 403.299 387.86 402.088 387.86 400.524H393.656C393.656 402.517 393.211 404.265 392.322 405.768C391.433 407.271 390.191 408.436 388.596 409.264C387.032 410.061 385.161 410.46 382.984 410.46ZM400.078 410V404.756H408.91V389.898H401.228V384.7H414.43V404.756H422.25V410H400.078ZM411.21 380.468C410.045 380.468 409.125 380.177 408.45 379.594C407.775 378.981 407.438 378.168 407.438 377.156C407.438 376.144 407.775 375.347 408.45 374.764C409.125 374.151 410.045 373.844 411.21 373.844C412.375 373.844 413.295 374.151 413.97 374.764C414.645 375.347 414.982 376.144 414.982 377.156C414.982 378.168 414.645 378.981 413.97 379.594C413.295 380.177 412.375 380.468 411.21 380.468ZM438.102 410.46C435.955 410.46 434.069 410.061 432.444 409.264C430.849 408.436 429.607 407.286 428.718 405.814C427.829 404.311 427.384 402.548 427.384 400.524V394.176C427.384 392.121 427.829 390.358 428.718 388.886C429.607 387.414 430.849 386.279 432.444 385.482C434.069 384.654 435.955 384.24 438.102 384.24C441.291 384.24 443.837 385.068 445.738 386.724C447.639 388.349 448.636 390.573 448.728 393.394H442.978C442.886 392.075 442.411 391.063 441.552 390.358C440.724 389.622 439.574 389.254 438.102 389.254C436.569 389.254 435.357 389.683 434.468 390.542C433.579 391.37 433.134 392.566 433.134 394.13V400.524C433.134 402.088 433.579 403.299 434.468 404.158C435.357 405.017 436.569 405.446 438.102 405.446C439.574 405.446 440.724 405.093 441.552 404.388C442.411 403.652 442.886 402.625 442.978 401.306H448.728C448.636 404.127 447.639 406.366 445.738 408.022C443.837 409.647 441.291 410.46 438.102 410.46ZM462.74 410.46C460.133 410.46 458.079 409.77 456.576 408.39C455.073 407.01 454.322 405.155 454.322 402.824C454.322 400.34 455.15 398.423 456.806 397.074C458.462 395.725 460.808 395.05 463.844 395.05H470.146V392.888C470.146 391.661 469.747 390.711 468.95 390.036C468.153 389.331 467.064 388.978 465.684 388.978C464.427 388.978 463.384 389.254 462.556 389.806C461.728 390.358 461.237 391.109 461.084 392.06H455.472C455.748 389.668 456.821 387.767 458.692 386.356C460.563 384.945 462.955 384.24 465.868 384.24C468.965 384.24 471.403 385.022 473.182 386.586C474.991 388.119 475.896 390.205 475.896 392.842V410H470.33V405.584H469.41L470.33 404.342C470.33 406.213 469.64 407.7 468.26 408.804C466.88 409.908 465.04 410.46 462.74 410.46ZM464.626 406.136C466.251 406.136 467.57 405.722 468.582 404.894C469.625 404.066 470.146 402.993 470.146 401.674V398.592H463.936C462.771 398.592 461.835 398.929 461.13 399.604C460.425 400.279 460.072 401.168 460.072 402.272C460.072 403.468 460.471 404.419 461.268 405.124C462.096 405.799 463.215 406.136 464.626 406.136ZM490.966 410.46C488.451 410.46 486.412 409.586 484.848 407.838C483.315 406.09 482.548 403.744 482.548 400.8V393.946C482.548 390.971 483.315 388.61 484.848 386.862C486.381 385.114 488.421 384.24 490.966 384.24C493.051 384.24 494.707 384.838 495.934 386.034C497.161 387.199 497.774 388.809 497.774 390.864L496.486 389.53H497.82L497.636 383.504V376.42H503.386V410H497.774V405.17H496.486L497.774 403.836C497.774 405.891 497.161 407.516 495.934 408.712C494.707 409.877 493.051 410.46 490.966 410.46ZM492.99 405.492C494.462 405.492 495.597 405.063 496.394 404.204C497.222 403.315 497.636 402.088 497.636 400.524V394.176C497.636 392.612 497.222 391.401 496.394 390.542C495.597 389.653 494.462 389.208 492.99 389.208C491.518 389.208 490.368 389.637 489.54 390.496C488.712 391.355 488.298 392.581 488.298 394.176V400.524C488.298 402.119 488.712 403.345 489.54 404.204C490.368 405.063 491.518 405.492 492.99 405.492ZM517.904 410.46C515.297 410.46 513.243 409.77 511.74 408.39C510.237 407.01 509.486 405.155 509.486 402.824C509.486 400.34 510.314 398.423 511.97 397.074C513.626 395.725 515.972 395.05 519.008 395.05H525.31V392.888C525.31 391.661 524.911 390.711 524.114 390.036C523.317 389.331 522.228 388.978 520.848 388.978C519.591 388.978 518.548 389.254 517.72 389.806C516.892 390.358 516.401 391.109 516.248 392.06H510.636C510.912 389.668 511.985 387.767 513.856 386.356C515.727 384.945 518.119 384.24 521.032 384.24C524.129 384.24 526.567 385.022 528.346 386.586C530.155 388.119 531.06 390.205 531.06 392.842V410H525.494V405.584H524.574L525.494 404.342C525.494 406.213 524.804 407.7 523.424 408.804C522.044 409.908 520.204 410.46 517.904 410.46ZM519.79 406.136C521.415 406.136 522.734 405.722 523.746 404.894C524.789 404.066 525.31 402.993 525.31 401.674V398.592H519.1C517.935 398.592 516.999 398.929 516.294 399.604C515.589 400.279 515.236 401.168 515.236 402.272C515.236 403.468 515.635 404.419 516.432 405.124C517.26 405.799 518.379 406.136 519.79 406.136Z" fill="#4E4E4E"/>
<path d="M116.702 195C106.422 283.939 281.967 255.853 281.967 255.853C281.967 255.853 462.256 222.306 451.976 312.806" stroke="#797979" stroke-width="2"/>
<path d="M453.201 312.806C442.922 223.866 618.466 251.952 618.466 251.952C618.466 251.952 798.755 285.5 788.475 195" stroke="#797979" stroke-width="2"/>
<path d="M338.393 194C332.9 245.687 386.259 247.277 420 260" stroke="#797979" stroke-width="2"/>
<path d="M568.602 194C574.162 244.904 520.153 246.47 486 259" stroke="#797979" stroke-width="2"/>
<path d="M440.68 302.384L452.68 312.384L464.68 302.384" stroke="#797979" stroke-width="2"/>
<path d="M746.196 87.4444C744.679 87.4444 743.542 88.8348 743.795 90.2253L754.033 152.92C754.286 154.563 755.676 155.701 757.319 155.701H806.869C808.006 155.701 809.018 154.816 809.27 153.678L819.635 90.3517C819.888 88.8348 818.75 87.5709 817.234 87.5709L746.196 87.4444ZM789.678 132.696H773.878L769.707 110.323H793.597L789.678 132.696Z" fill="#2684FF"/>
<path d="M816.222 110.323H793.47L789.678 132.696H773.878L755.297 154.816C755.297 154.816 756.182 155.575 757.446 155.575H806.995C808.132 155.575 809.144 154.69 809.396 153.552L816.222 110.323Z" fill="url(#paint0_linear_3_2)"/>
<rect x="705.222" y="41" width="152.985" height="152.985" rx="14" stroke="#797979" stroke-width="2"/>
<rect x="483.815" y="41" width="152.985" height="152.985" rx="14" stroke="#797979" stroke-width="2"/>
<path d="M605.116 88.4988V144.979L581.921 163.999L545.969 150.893V163.883L525.615 137.266L584.936 141.905V91.0502L605.116 88.4988ZM585.342 91.3402L552.057 71.1025V84.3816L521.498 93.3697L512.336 105.141V131.874L525.441 137.672V103.402L585.342 91.3402Z" fill="url(#paint1_linear_3_2)"/>
<rect x="262.407" y="41" width="152.985" height="152.985" rx="14" stroke="#797979" stroke-width="2"/>
<g clip-path="url(#clip0_3_2)">
<path fill-rule="evenodd" clip-rule="evenodd" d="M337.956 66.8852C309.619 66.8852 286.711 89.7178 286.711 117.965C286.711 140.544 301.389 159.657 321.751 166.422C324.297 166.931 325.229 165.323 325.229 163.971L325.145 154.498C310.89 157.543 307.922 148.409 307.922 148.409C305.631 142.489 302.237 140.968 302.237 140.968C297.571 137.839 302.576 137.839 302.576 137.839C307.752 138.177 310.468 143.082 310.468 143.082C315.048 150.862 322.43 148.663 325.399 147.31C325.823 144.012 327.181 141.729 328.624 140.46C317.254 139.276 305.292 134.879 305.292 115.258C305.292 109.677 307.327 105.11 310.551 101.559C310.043 100.29 308.261 95.0461 311.061 88.0272C311.061 88.0272 315.388 86.6738 325.144 93.2704C329.321 92.1523 333.629 91.5835 337.956 91.5787C342.283 91.5787 346.694 92.1713 350.767 93.2704C360.524 86.6738 364.851 88.0272 364.851 88.0272C367.652 95.0461 365.868 100.29 365.36 101.559C368.669 105.11 370.62 109.677 370.62 115.258C370.62 134.879 358.658 139.191 347.204 140.46C349.071 142.067 350.682 145.111 350.682 149.932L350.598 163.97C350.598 165.323 351.532 166.931 354.076 166.423C374.438 159.656 389.116 140.544 389.116 117.965C389.2 89.7178 366.208 66.8852 337.956 66.8852Z" fill="#24292F"/>
</g>
<g clip-path="url(#clip1_3_2)">
<path d="M160.267 109.214L160.141 108.889L147.872 76.8144C147.623 76.1858 147.181 75.6525 146.61 75.2911C146.182 75.0317 145.7 74.8736 145.202 74.8289C144.704 74.7842 144.202 74.8541 143.735 75.0333C143.268 75.2124 142.847 75.496 142.506 75.8626C142.165 76.2291 141.912 76.6688 141.766 77.1483L133.483 102.537H99.9396L91.6559 77.1483C91.4762 76.4941 91.0952 75.9133 90.567 75.4886C90.0371 75.074 89.3929 74.8323 88.7214 74.7962C88.05 74.76 87.3836 74.9311 86.8124 75.2864C86.2427 75.6492 85.8011 76.1821 85.5499 76.8097L73.2581 108.871L73.1361 109.195C71.37 113.818 71.152 118.89 72.5149 123.648C73.8779 128.406 76.7479 132.591 80.6923 135.572L80.7345 135.605L80.8472 135.684L99.5359 149.705L108.782 156.715L114.414 160.975C115.073 161.476 115.877 161.747 116.704 161.747C117.531 161.747 118.336 161.476 118.994 160.975L124.626 156.715L133.872 149.705L152.674 135.6L152.721 135.562C156.656 132.581 159.519 128.4 160.88 123.649C162.241 118.898 162.026 113.832 160.267 109.214Z" fill="#E24329"/>
<path d="M160.268 109.214L160.141 108.889C154.163 110.119 148.53 112.655 143.644 116.318L116.7 136.728L133.863 149.724L152.664 135.619L152.711 135.581C156.652 132.599 159.52 128.416 160.883 123.661C162.246 118.906 162.03 113.835 160.268 109.214Z" fill="#FC6D26"/>
<path d="M99.5361 149.724L108.782 156.734L114.414 160.994C115.073 161.495 115.877 161.766 116.704 161.766C117.531 161.766 118.336 161.495 118.995 160.994L124.627 156.734L133.872 149.724L116.7 136.728L99.5361 149.724Z" fill="#FCA326"/>
<path d="M89.7505 116.318C84.8685 112.648 79.2366 110.104 73.2582 108.871L73.1362 109.195C71.3701 113.818 71.1521 118.89 72.5151 123.648C73.878 128.406 76.7481 132.591 80.6924 135.571L80.7347 135.604L80.8473 135.684L99.5361 149.705L116.7 136.709L89.7505 116.318Z" fill="#FC6D26"/>
</g>
<rect x="41" y="41" width="152.985" height="152.985" rx="14" stroke="#797979" stroke-width="2"/>
<rect x="600.5" y="30.5" width="154" height="34" rx="3.5" fill="#D2FF89" stroke="#2E2E2E"/>
<path d="M613.08 55.2C612.2 55.2 611.433 55.0333 610.78 54.7C610.14 54.3667 609.64 53.8867 609.28 53.26C608.933 52.62 608.76 51.8667 608.76 51V44.4C608.76 43.52 608.933 42.7667 609.28 42.14C609.64 41.5133 610.14 41.0333 610.78 40.7C611.433 40.3667 612.2 40.2 613.08 40.2C613.96 40.2 614.72 40.3733 615.36 40.72C616 41.0533 616.493 41.5333 616.84 42.16C617.187 42.7867 617.36 43.5333 617.36 44.4H615.56C615.56 43.5733 615.34 42.94 614.9 42.5C614.473 42.0467 613.867 41.82 613.08 41.82C612.293 41.82 611.673 42.04 611.22 42.48C610.78 42.92 610.56 43.5533 610.56 44.38V51C610.56 51.8267 610.78 52.4667 611.22 52.92C611.673 53.36 612.293 53.58 613.08 53.58C613.867 53.58 614.473 53.36 614.9 52.92C615.34 52.4667 615.56 51.8267 615.56 51H617.36C617.36 51.8533 617.187 52.6 616.84 53.24C616.493 53.8667 616 54.3533 615.36 54.7C614.72 55.0333 613.96 55.2 613.08 55.2ZM624.992 55.16C624.112 55.16 623.352 54.9933 622.712 54.66C622.072 54.3267 621.572 53.8467 621.212 53.22C620.866 52.58 620.692 51.8267 620.692 50.96V48.04C620.692 47.16 620.866 46.4067 621.212 45.78C621.572 45.1533 622.072 44.6733 622.712 44.34C623.352 44.0067 624.112 43.84 624.992 43.84C625.872 43.84 626.632 44.0067 627.272 44.34C627.912 44.6733 628.406 45.1533 628.752 45.78C629.112 46.4067 629.292 47.1533 629.292 48.02V50.96C629.292 51.8267 629.112 52.58 628.752 53.22C628.406 53.8467 627.912 54.3267 627.272 54.66C626.632 54.9933 625.872 55.16 624.992 55.16ZM624.992 53.56C625.779 53.56 626.392 53.34 626.832 52.9C627.272 52.46 627.492 51.8133 627.492 50.96V48.04C627.492 47.1867 627.272 46.54 626.832 46.1C626.392 45.66 625.779 45.44 624.992 45.44C624.219 45.44 623.606 45.66 623.152 46.1C622.712 46.54 622.492 47.1867 622.492 48.04V50.96C622.492 51.8133 622.712 52.46 623.152 52.9C623.606 53.34 624.219 53.56 624.992 53.56ZM632.304 55V44H633.884V45.32H634.244L633.964 45.8C633.964 45.1867 634.124 44.7 634.444 44.34C634.778 43.98 635.224 43.8 635.784 43.8C636.398 43.8 636.871 44.0267 637.204 44.48C637.538 44.9333 637.704 45.5733 637.704 46.4L637.164 45.32H638.004L637.624 45.8C637.624 45.1867 637.791 44.7 638.124 44.34C638.471 43.98 638.924 43.8 639.484 43.8C640.178 43.8 640.711 44.06 641.084 44.58C641.471 45.1 641.664 45.7867 641.664 46.64V55H640.004V46.62C640.004 46.1667 639.904 45.8133 639.704 45.56C639.518 45.3067 639.238 45.18 638.864 45.18C638.504 45.18 638.218 45.3067 638.004 45.56C637.804 45.8 637.704 46.1467 637.704 46.6V55H636.264V46.62C636.264 46.1533 636.158 45.8 635.944 45.56C635.744 45.3067 635.458 45.18 635.084 45.18C634.711 45.18 634.431 45.3067 634.244 45.56C634.058 45.8 633.964 46.1467 633.964 46.6V55H632.304ZM644.677 55V53.36H648.577V45.64H645.177V44H650.377V53.36H654.077V55H644.677ZM649.277 42.02C648.837 42.02 648.49 41.9067 648.237 41.68C647.983 41.4533 647.857 41.1467 647.857 40.76C647.857 40.36 647.983 40.0467 648.237 39.82C648.49 39.58 648.837 39.46 649.277 39.46C649.717 39.46 650.063 39.58 650.317 39.82C650.57 40.0467 650.697 40.36 650.697 40.76C650.697 41.1467 650.57 41.4533 650.317 41.68C650.063 41.9067 649.717 42.02 649.277 42.02ZM656.809 55V44H658.609V46.1H658.989L658.609 46.52C658.609 45.6533 658.869 44.9867 659.389 44.52C659.909 44.04 660.629 43.8 661.549 43.8C662.655 43.8 663.535 44.14 664.189 44.82C664.842 45.5 665.169 46.4267 665.169 47.6V55H663.369V47.8C663.369 47.0133 663.155 46.4133 662.729 46C662.315 45.5733 661.749 45.36 661.029 45.36C660.282 45.36 659.689 45.5867 659.249 46.04C658.822 46.4933 658.609 47.1467 658.609 48V55H656.809ZM670.181 58.6V56.96H673.681C674.241 56.96 674.648 56.8333 674.901 56.58C675.168 56.3267 675.301 55.9333 675.301 55.4V54L675.341 52H674.981L675.321 51.7C675.321 52.5 675.054 53.1333 674.521 53.6C673.988 54.0667 673.274 54.3 672.381 54.3C671.248 54.3 670.354 53.9333 669.701 53.2C669.048 52.4533 668.721 51.4533 668.721 50.2V47.88C668.721 46.6267 669.048 45.6333 669.701 44.9C670.354 44.1667 671.248 43.8 672.381 43.8C673.274 43.8 673.988 44.0333 674.521 44.5C675.054 44.9667 675.321 45.6 675.321 46.4L674.981 46.1H675.321V44H677.101V55.4C677.101 56.3867 676.794 57.1667 676.181 57.74C675.581 58.3133 674.741 58.6 673.661 58.6H670.181ZM672.921 52.74C673.668 52.74 674.254 52.5067 674.681 52.04C675.108 51.5733 675.321 50.9267 675.321 50.1V48C675.321 47.1733 675.108 46.5267 674.681 46.06C674.254 45.5933 673.668 45.36 672.921 45.36C672.161 45.36 671.568 45.5867 671.141 46.04C670.728 46.4933 670.521 47.1467 670.521 48V50.1C670.521 50.9533 670.728 51.6067 671.141 52.06C671.568 52.5133 672.161 52.74 672.921 52.74ZM697.025 55.2C696.065 55.2 695.239 55.04 694.545 54.72C693.865 54.4 693.339 53.94 692.965 53.34C692.592 52.74 692.399 52.0267 692.385 51.2H694.185C694.185 51.9333 694.432 52.5133 694.925 52.94C695.432 53.3667 696.132 53.58 697.025 53.58C697.865 53.58 698.519 53.3733 698.985 52.96C699.465 52.5467 699.705 51.9733 699.705 51.24C699.705 50.6533 699.545 50.14 699.225 49.7C698.919 49.26 698.472 48.9533 697.885 48.78L695.905 48.16C694.905 47.8533 694.132 47.34 693.585 46.62C693.052 45.9 692.785 45.0533 692.785 44.08C692.785 43.2933 692.959 42.6133 693.305 42.04C693.665 41.4533 694.165 41 694.805 40.68C695.445 40.3467 696.199 40.18 697.065 40.18C698.345 40.18 699.372 40.54 700.145 41.26C700.919 41.9667 701.312 42.9133 701.325 44.1H699.525C699.525 43.38 699.305 42.82 698.865 42.42C698.439 42.0067 697.832 41.8 697.045 41.8C696.272 41.8 695.665 41.9867 695.225 42.36C694.799 42.7333 694.585 43.2533 694.585 43.92C694.585 44.52 694.745 45.04 695.065 45.48C695.385 45.92 695.845 46.2333 696.445 46.42L698.445 47.06C699.419 47.3667 700.172 47.8867 700.705 48.62C701.239 49.3533 701.505 50.2133 701.505 51.2C701.505 52 701.319 52.7 700.945 53.3C700.572 53.9 700.045 54.3667 699.365 54.7C698.699 55.0333 697.919 55.2 697.025 55.2ZM708.938 55.16C708.058 55.16 707.298 54.9933 706.658 54.66C706.018 54.3267 705.518 53.8467 705.158 53.22C704.811 52.58 704.638 51.8267 704.638 50.96V48.04C704.638 47.16 704.811 46.4067 705.158 45.78C705.518 45.1533 706.018 44.6733 706.658 44.34C707.298 44.0067 708.058 43.84 708.938 43.84C709.818 43.84 710.578 44.0067 711.218 44.34C711.858 44.6733 712.351 45.1533 712.698 45.78C713.058 46.4067 713.238 47.1533 713.238 48.02V50.96C713.238 51.8267 713.058 52.58 712.698 53.22C712.351 53.8467 711.858 54.3267 711.218 54.66C710.578 54.9933 709.818 55.16 708.938 55.16ZM708.938 53.56C709.724 53.56 710.338 53.34 710.778 52.9C711.218 52.46 711.438 51.8133 711.438 50.96V48.04C711.438 47.1867 711.218 46.54 710.778 46.1C710.338 45.66 709.724 45.44 708.938 45.44C708.164 45.44 707.551 45.66 707.098 46.1C706.658 46.54 706.438 47.1867 706.438 48.04V50.96C706.438 51.8133 706.658 52.46 707.098 52.9C707.551 53.34 708.164 53.56 708.938 53.56ZM720.93 55.16C720.05 55.16 719.29 54.9933 718.65 54.66C718.01 54.3267 717.51 53.8467 717.15 53.22C716.803 52.58 716.63 51.8267 716.63 50.96V48.04C716.63 47.16 716.803 46.4067 717.15 45.78C717.51 45.1533 718.01 44.6733 718.65 44.34C719.29 44.0067 720.05 43.84 720.93 43.84C721.81 43.84 722.57 44.0067 723.21 44.34C723.85 44.6733 724.343 45.1533 724.69 45.78C725.05 46.4067 725.23 47.1533 725.23 48.02V50.96C725.23 51.8267 725.05 52.58 724.69 53.22C724.343 53.8467 723.85 54.3267 723.21 54.66C722.57 54.9933 721.81 55.16 720.93 55.16ZM720.93 53.56C721.716 53.56 722.33 53.34 722.77 52.9C723.21 52.46 723.43 51.8133 723.43 50.96V48.04C723.43 47.1867 723.21 46.54 722.77 46.1C722.33 45.66 721.716 45.44 720.93 45.44C720.156 45.44 719.543 45.66 719.09 46.1C718.65 46.54 718.43 47.1867 718.43 48.04V50.96C718.43 51.8133 718.65 52.46 719.09 52.9C719.543 53.34 720.156 53.56 720.93 53.56ZM728.762 55V44H730.562V46.1H730.942L730.562 46.52C730.562 45.6533 730.822 44.9867 731.342 44.52C731.862 44.04 732.582 43.8 733.502 43.8C734.609 43.8 735.489 44.14 736.142 44.82C736.795 45.5 737.122 46.4267 737.122 47.6V55H735.322V47.8C735.322 47.0133 735.109 46.4133 734.682 46C734.269 45.5733 733.702 45.36 732.982 45.36C732.235 45.36 731.642 45.5867 731.202 46.04C730.775 46.4933 730.562 47.1467 730.562 48V55H728.762ZM744.274 50.7L743.854 42.8V40.4H745.974V42.8L745.554 50.7H744.274ZM744.614 55.1C744.267 55.1 743.981 54.9867 743.754 54.76C743.527 54.5333 743.414 54.2467 743.414 53.9C743.414 53.5533 743.527 53.2667 743.754 53.04C743.981 52.8133 744.267 52.7 744.614 52.7H745.214C745.601 52.7 745.894 52.8133 746.094 53.04C746.307 53.2533 746.414 53.5333 746.414 53.88C746.414 54.2267 746.301 54.52 746.074 54.76C745.847 54.9867 745.561 55.1 745.214 55.1H744.614Z" fill="#2E2E2E"/>
<defs>
<linearGradient id="paint0_linear_3_2" x1="821.544" y1="116.628" x2="783.84" y2="146.059" gradientUnits="userSpaceOnUse">
<stop offset="0.176" stop-color="#0052CC"/>
<stop offset="1" stop-color="#2684FF"/>
</linearGradient>
<linearGradient id="paint1_linear_3_2" x1="558.726" y1="163.709" x2="558.726" y2="71.2764" gradientUnits="userSpaceOnUse">
<stop stop-color="#0078D4"/>
<stop offset="0.16" stop-color="#1380DA"/>
<stop offset="0.53" stop-color="#3C91E5"/>
<stop offset="0.82" stop-color="#559CEC"/>
<stop offset="1" stop-color="#5EA0EF"/>
</linearGradient>
<clipPath id="clip0_3_2">
<rect width="102.796" height="99.6333" fill="white" transform="translate(286.711 66.8852)"/>
</clipPath>
<clipPath id="clip1_3_2">
<rect width="90.1444" height="86.9815" fill="white" transform="translate(71.6296 74.7926)"/>
</clipPath>
</defs>
</svg>
